<svg id="canvas" height="auto" xmlns="http://www.w3.org/2000/svg" version="1.1" xmlns:xlink="http://www.w3.org/1999/xlink" viewBox="0 0 900 512" width="auto" style="width: auto; height: auto;"><rect width="900" height="512" fill="#22a7f2ff"/><defs><linearGradient x1="0.5" y1="0" x2="0" y2="1" id="SvgjsLinearGradient1815"><stop stop-color="#080af2" offset="0"/><stop stop-color="#03045e" offset="0.1"/></linearGradient><linearGradient x1="0.5" y1="0" x2="0" y2="1" id="SvgjsLinearGradient1816"><stop stop-color="#2986fc" offset="0"/><stop stop-color="#023e8a" offset="0.28"/></linearGradient><linearGradient x1="0.5" y1="0" x2="0" y2="1" id="SvgjsLinearGradient1817"><stop stop-color="#50c2ff" offset="0"/><stop stop-color="#0077b6" offset="0.4600000000000001"/></linearGradient><linearGradient x1="0.5" y1="0" x2="0" y2="1" id="SvgjsLinearGradient1818"><stop stop-color="#61d8ff" offset="0"/><stop stop-color="#0096c7" offset="0.64"/></linearGradient><linearGradient x1="0.5" y1="0" x2="0" y2="1" id="SvgjsLinearGradient1819"><stop stop-color="#72e7ff" offset="0"/><stop stop-color="#00b4d8" offset="0.8200000000000001"/></linearGradient></defs><path d="M-450,-204.22206071400717C-420.43971245911473,-202.24443359052657,-329.6581098801469,-201.334069653884,-272.6382747546882,-192.35629797312362C-215.61843962922947,-183.37852629236323,-166.02534594920786,-168.43966715154045,-107.88098924724764,-150.35543062944492C-49.73663254528742,-132.2711941073494,18.222921463155295,-93.22263064179634,76.2278654570731,-83.85087884055046C134.23280945099089,-74.47912703930459,190.12779718412506,-101.69356450533245,240.14867471625914,-94.12491982196966C290.1695522483932,-86.55627513860686,320.4516841130026,-49.98761830943082,376.3531306498776,-38.43901074037372C432.25457718675256,-26.890403171316613,516.3761000927768,-33.59131856710213,575.557353937509,-24.833274407627044C634.7386077822412,-16.07523024815196,677.366879374522,1.3407186008734584,731.4406537182705,14.10925421647677C785.514428062019,26.877789832080083,871.9067756197118,45.49982510774015,900,51.77793928599282L 900 512 L -450 512 Z" fill="url(#SvgjsLinearGradient1815)"/><path d="M-450,-136.34818980962632C-421.60789948515475,-134.84156914996973,-340.1181044278603,-137.2094878442918,-279.6473969109285,-127.30846585168675C-219.17668939399667,-117.40744385908168,-141.51460693981957,-94.81524552211063,-87.17575489840914,-76.94205785399592C-32.83690285699871,-59.06887018588121,-0.991307838115695,-36.7615098302192,46.38571533753404,-20.06933984299848C93.76273851318376,-3.377169855777762,138.08966447976096,11.853076361616305,197.08638415548927,23.210962069328396C256.0831038312176,34.56884777704049,338.07487795273073,34.159433379483666,400.36603339190395,48.077974403274055C462.6571888310772,61.996515427064445,518.4591209866013,94.66143324805907,570.8333167905287,106.72220821207074C623.207512594456,118.78298317608241,659.7500943472229,108.7531127465158,714.6112082154681,120.44262418734407C769.4723220837133,132.13213562817234,869.1018680359114,167.45650141209094,900,176.85927685704033L 900 512 L -450 512 Z" fill="url(#SvgjsLinearGradient1816)"/><path d="M-450,-42.52423165335937C-425.5111198794939,-34.52343107358462,-360.4230161174513,-11.269618937133714,-303.06671927696334,5.480571825289175C-245.71042243647534,22.230762587712064,-163.04470809887493,44.95210531386854,-105.862218957072,57.97691292117797C-48.67972981526908,71.0017205284874,-18.544979070535113,70.40699825651924,40.02821557385418,83.62941746914574C98.60141021824347,96.85183668177223,187.04809628669645,120.5126971736461,245.5769489092638,137.31142819693696C304.1058015318311,154.1101592202278,339.2088785851543,166.05508750523654,391.2013313092582,184.4218036088909C443.1937840333621,202.78851971254528,501.5199440001869,230.23541915274254,557.531665253887,247.51172481886312C613.5433865075871,264.78803048498366,670.19360304044,274.6831414620959,727.2716588314589,288.0796376056143C784.3497146224778,301.47613374913277,871.2119431385765,321.2555243342473,900,327.8907016799739L 900 512 L -450 512 Z" fill="url(#SvgjsLinearGradient1817)"/><path d="M-450,31.493562245982787C-410.02395486902435,43.18319663988989,-298.4025492477127,69.02105073235725,-210.14372921414616,101.63136860942542C-121.88490918057958,134.2416864864936,-12.753543071446686,201.51828295699673,79.55292020139953,227.1554695083918C171.85938347424576,252.79265605978688,257.42109023927895,225.47514433540255,343.6950504229312,255.4544879177958C429.9690106065835,285.43383150018906,504.47918970713505,373.0879519480534,597.1966813033132,407.03153100275125C689.9141728994913,440.9751100574491,849.5327802172188,450.43522370544423,900,459.1159622459828L 900 512 L -450 512 Z" fill="url(#SvgjsLinearGradient1818)"/><path d="M-450,133.55517386389062C-405.37363512342694,146.64745501771463,-272.20816546236034,177.75925344794283,-182.24181074056162,212.1088607868347C-92.2754560187629,246.45846812572657,0.7800336235947896,308.32563932362126,89.79812833079231,339.65281789724185C178.81622303798983,370.97999647086243,263.3088728586618,365.2464660384253,351.8667575026235,400.0719322285583C440.4246421465852,434.8973984186913,529.7898957783332,512.2200969877066,621.1454361945625,548.6056150380398C712.5009766107919,584.991133088373,853.5242393657604,606.7551362818043,900,618.3850405305573L 900 512 L -450 512 Z" fill="url(#SvgjsLinearGradient1819)"/></svg>